<?xml version="1.0" encoding="UTF-8" standalone="no"?>
<svg
   xmlns:dc="http://purl.org/dc/elements/1.1/"
   xmlns:cc="http://creativecommons.org/ns#"
   xmlns:rdf="http://www.w3.org/1999/02/22-rdf-syntax-ns#"
   xmlns:svg="http://www.w3.org/2000/svg"
   xmlns="http://www.w3.org/2000/svg"
   xmlns:sodipodi="http://sodipodi.sourceforge.net/DTD/sodipodi-0.dtd"
   xmlns:inkscape="http://www.inkscape.org/namespaces/inkscape"
   height="24"
   viewBox="0 0 24 24"
   width="24"
   version="1.1"
   id="svg6"
   sodipodi:docname="flip.svg"
   inkscape:version="0.92.4 (5da689c313, 2019-01-14)">
  <metadata
     id="metadata12">
    <rdf:RDF>
      <cc:Work
         rdf:about="">
        <dc:format>image/svg+xml</dc:format>
        <dc:type
           rdf:resource="http://purl.org/dc/dcmitype/StillImage" />
        <dc:title></dc:title>
      </cc:Work>
    </rdf:RDF>
  </metadata>
  <defs
     id="defs10" />
  <sodipodi:namedview
     pagecolor="#ffffff"
     bordercolor="#666666"
     borderopacity="1"
     objecttolerance="10"
     gridtolerance="10"
     guidetolerance="10"
     inkscape:pageopacity="0"
     inkscape:pageshadow="2"
     inkscape:window-width="640"
     inkscape:window-height="480"
     id="namedview8"
     showgrid="false"
     inkscape:zoom="9.8333333"
     inkscape:cx="12"
     inkscape:cy="12"
     inkscape:window-x="538"
     inkscape:window-y="170"
     inkscape:window-maximized="0"
     inkscape:current-layer="svg6" />
  <path
     d="M 24,0 V 24 H 0 V 0 Z"
     id="path2"
     inkscape:connector-curvature="0"
     style="fill:none" />
  <path
     d="m 3,15 v 2 h 2 v -2 z m 12,4 v 2 h 2 V 19 Z M 19,3 H 5 C 3.9,3 3,3.9 3,5 V 9 H 5 V 5 h 14 v 4 h 2 V 5 C 21,3.9 20.1,3 19,3 Z m 2,16 h -2 v 2 c 1.1,0 2,-0.9 2,-2 z M 1,11 v 2 h 22 v -2 z m 6,8 v 2 h 2 v -2 z m 12,-4 v 2 h 2 v -2 z m -8,4 v 2 h 2 v -2 z m -8,0 c 0,1.1 0.9,2 2,2 v -2 z"
     id="path4"
     inkscape:connector-curvature="0" />
</svg>
