<?xml version="1.0" encoding="UTF-8" standalone="no"?>
<svg
   xmlns:dc="http://purl.org/dc/elements/1.1/"
   xmlns:cc="http://creativecommons.org/ns#"
   xmlns:rdf="http://www.w3.org/1999/02/22-rdf-syntax-ns#"
   xmlns:svg="http://www.w3.org/2000/svg"
   xmlns="http://www.w3.org/2000/svg"
   xmlns:sodipodi="http://sodipodi.sourceforge.net/DTD/sodipodi-0.dtd"
   xmlns:inkscape="http://www.inkscape.org/namespaces/inkscape"
   height="24"
   viewBox="0 0 24 24"
   width="24"
   version="1.1"
   id="svg8"
   sodipodi:docname="remove-all.svg"
   inkscape:version="0.92.4 (5da689c313, 2019-01-14)">
  <metadata
     id="metadata14">
    <rdf:RDF>
      <cc:Work
         rdf:about="">
        <dc:format>image/svg+xml</dc:format>
        <dc:type
           rdf:resource="http://purl.org/dc/dcmitype/StillImage" />
      </cc:Work>
    </rdf:RDF>
  </metadata>
  <defs
     id="defs12" />
  <sodipodi:namedview
     pagecolor="#ffffff"
     bordercolor="#666666"
     borderopacity="1"
     objecttolerance="10"
     gridtolerance="10"
     guidetolerance="10"
     inkscape:pageopacity="0"
     inkscape:pageshadow="2"
     inkscape:window-width="1172"
     inkscape:window-height="704"
     id="namedview10"
     showgrid="false"
     inkscape:zoom="9.8333333"
     inkscape:cx="12"
     inkscape:cy="12"
     inkscape:window-x="545"
     inkscape:window-y="89"
     inkscape:window-maximized="0"
     inkscape:current-layer="svg8" />
  <path
     d="M0 0h24v24H0V0z"
     fill="none"
     id="path2" />
  <path
     d="M6 19c0 1.1.9 2 2 2h8c1.1 0 2-.9 2-2V7H6v12zm2.46-7.12l1.41-1.41L12 12.59l2.12-2.12 1.41 1.41L13.41 14l2.12 2.12-1.41 1.41L12 15.41l-2.12 2.12-1.41-1.41L10.59 14l-2.13-2.12zM15.5 4l-1-1h-5l-1 1H5v2h14V4z"
     id="path4" />
  <path
     d="M0 0h24v24H0z"
     fill="none"
     id="path6" />
  <path
     style="fill:#d40000;stroke-width:0.10169491"
     d="M 7.2101695,20.756945 C 6.7178668,20.529732 6.4080409,20.207789 6.198074,19.705268 6.0618915,19.379338 6.040678,18.498899 6.040678,13.172758 V 7.0169492 h 5.949153 5.949152 V 13.22439 c 0,5.901612 -0.0095,6.226031 -0.193493,6.584746 -0.244645,0.47705 -0.570943,0.782293 -1.050391,0.98262 -0.320396,0.13387 -1.027001,0.157063 -4.727426,0.155163 -4.0123529,-0.0021 -4.3823605,-0.01683 -4.7575035,-0.189974 z m 5.8470935,-4.231886 1.063955,1.067588 0.739834,-0.734896 0.739834,-0.734897 -1.068318,-1.071641 -1.068318,-1.07164 1.067508,-1.063875 1.067508,-1.063875 L 14.91592,11.1632 c -0.375841,-0.378743 -0.729555,-0.688624 -0.786032,-0.688624 -0.05648,0 -0.561915,0.457666 -1.123194,1.017035 l -1.020508,1.017035 -1.013219,-1.017035 c -0.55727,-0.559369 -1.0586917,-1.017035 -1.1142696,-1.017035 -0.055578,0 -0.4113381,0.30791 -0.7905782,0.684244 l -0.6895274,0.684244 1.0684549,1.071778 1.0684553,1.071778 -1.0170733,1.013257 c -0.55939,0.557291 -1.0170728,1.058729 -1.0170728,1.114307 0,0.05558 0.3079098,0.411338 0.6842438,0.790578 l 0.6842438,0.689527 1.0717325,-1.068409 1.071733,-1.068409 z"
     id="path3719"
     inkscape:connector-curvature="0" />
  <path
     style="fill:#ff5555;stroke-width:0.10169491"
     d="M 5.0237288,5.0338983 V 4.0677966 H 6.781789 8.5398492 L 9.040678,3.559322 9.5415067,3.0508475 h 2.4483243 2.448323 l 0.500829,0.5084745 0.500829,0.5084746 h 1.75806 1.75806 V 5.0338983 6 H 11.989831 5.0237288 Z"
     id="path3721"
     inkscape:connector-curvature="0" />
  <path
     style="fill:#ff8080;stroke-width:0.10169491"
     d="M 8.2779661,20.860179 C 7.7466102,20.821681 7.220339,20.738363 7.1084746,20.675029 6.7922346,20.495984 6.3711084,20.014157 6.2370218,19.677966 6.1493504,19.458151 6.1011833,17.646183 6.0646845,13.194915 L 6.0140275,7.0169492 h 5.9749745 5.974975 l -0.04429,6.2288138 c -0.04847,6.817982 -0.01982,6.508294 -0.658069,7.112174 -0.158808,0.150255 -0.426029,0.326494 -0.593825,0.391639 -0.354579,0.137665 -6.8368638,0.22312 -8.3898309,0.110603 z m 2.5981019,-4.283908 c 0.568387,-0.559322 1.077261,-1.016949 1.130832,-1.016949 0.05357,0 0.547621,0.458248 1.097889,1.018328 l 1.000488,1.018328 0.67109,-0.630799 c 0.3691,-0.34694 0.712858,-0.666192 0.763907,-0.70945 0.05105,-0.04326 -0.372255,-0.561506 -0.940678,-1.151661 -0.568422,-0.590156 -1.033494,-1.112523 -1.033494,-1.160816 0,-0.04829 0.463425,-0.532612 1.029833,-1.076264 l 1.029833,-0.988459 -0.696597,-0.701976 c -0.383129,-0.386087 -0.744491,-0.701977 -0.803028,-0.701977 -0.05854,0 -0.539369,0.434746 -1.068516,0.966102 -0.529146,0.531356 -1.009655,0.966102 -1.067796,0.966102 -0.05814,0 -0.53865,-0.434746 -1.067797,-0.966102 -0.529147,-0.531356 -1.0087513,-0.964125 -1.0657882,-0.961708 -0.057037,0.0024 -0.4206254,0.302482 -0.8079744,0.666813 l -0.7042708,0.66242 1.0347793,1.038313 c 0.5691287,0.571072 1.0347791,1.084198 1.0347791,1.14028 0,0.05608 -0.4347454,0.534905 -0.9661014,1.064051 -0.5313559,0.529147 -0.9661017,1.001532 -0.9661017,1.049746 0,0.08789 1.2315969,1.48065 1.3162347,1.488467 0.024776,0.0023 0.5100914,-0.453467 1.0784774,-1.012789 z"
     id="path3723"
     inkscape:connector-curvature="0" />
  <path
     style="fill:#aa0000;stroke-width:0.10169491"
     d="M 5.0237288,5.0338983 V 4.0677966 H 6.8326365 8.6415441 L 9.1423729,3.559322 9.6432016,3.0508475 h 2.3466294 2.346628 l 0.500829,0.5084745 0.500829,0.5084746 h 1.808908 1.808907 V 5.0338983 6 H 11.989831 5.0237288 Z"
     id="path3725"
     inkscape:connector-curvature="0" />
  <path
     style="fill:#800000;stroke-width:0.10169491"
     d="M 7.6169492,20.744263 C 7.2070176,20.671706 7.0268971,20.568047 6.6875406,20.209386 L 6.2666065,19.764507 6.2067302,18.500898 C 6.1737983,17.805912 6.1190204,14.937712 6.0850016,12.127119 L 6.0231493,7.0169492 h 5.9579167 5.957917 l -0.0087,1.8050847 c -0.0048,0.9927966 -0.04124,3.7957631 -0.08101,6.2288131 -0.08137,4.978064 -0.0721,4.918531 -0.849735,5.457459 l -0.415997,0.288304 -4.229056,0.01882 c -2.32598,0.01035 -4.4578688,-0.02167 -4.7375298,-0.07117 z m 3.2735568,-4.117144 c 0.566881,-0.531356 1.069921,-0.966102 1.117865,-0.966102 0.04794,0 0.52011,0.434746 1.049256,0.966102 0.529147,0.531356 1.00176,0.966101 1.050252,0.966101 0.04849,0 0.40247,-0.303433 0.786616,-0.674295 0.540341,-0.521655 0.678185,-0.711575 0.608934,-0.838983 -0.04923,-0.09058 -0.482391,-0.588258 -0.962574,-1.105955 -0.480182,-0.517697 -0.873058,-0.976228 -0.873058,-1.018957 0,-0.04273 0.434745,-0.510629 0.966101,-1.039776 C 15.165254,12.386108 15.6,11.898017 15.6,11.830609 c 0,-0.117856 -1.231109,-1.267972 -1.434974,-1.340569 -0.05465,-0.01946 -0.550568,0.380962 -1.102038,0.88983 -0.551471,0.508868 -1.033452,0.925215 -1.07107,0.925215 -0.03762,0 -0.501367,-0.400424 -1.030553,-0.889831 -0.529187,-0.489407 -1.0206031,-0.902991 -1.0920363,-0.919075 -0.1544622,-0.03478 -1.4896677,1.163473 -1.4896677,1.336873 0,0.06607 0.4347458,0.553056 0.9661017,1.082202 0.5313559,0.529147 0.9661013,1.001729 0.9661013,1.050183 0,0.04845 -0.411864,0.534443 -0.9152538,1.079977 -0.5033899,0.545534 -0.9152543,1.0337 -0.9152543,1.084814 0,0.112452 1.2069916,1.462992 1.3074915,1.462992 0.03903,0 0.5347766,-0.434745 1.1016586,-0.966101 z"
     id="path3727"
     inkscape:connector-curvature="0" />
  <path
     style="fill:#ff0000;stroke-width:0.10169491"
     d="M 5.0237288,5.0338983 V 4.0677966 H 6.8994426 8.7751564 L 9.2130019,3.559372 9.6508475,3.0509473 l 2.3484875,-4.99e-5 2.348488,-4.99e-5 0.428752,0.5084745 0.428752,0.5084746 h 1.875303 1.875302 V 5.0338983 6 H 11.989831 5.0237288 Z"
     id="path3729"
     inkscape:connector-curvature="0" />
  <path
     style="fill:#d40000;stroke-width:0.10169491"
     d="M 7.3118644,20.601226 C 7.1440678,20.52611 6.8485364,20.298533 6.6551279,20.0955 L 6.3034762,19.726349 6.231581,17.363175 C 6.1920386,16.063429 6.136165,13.203814 6.1074173,11.008475 L 6.0551489,7.0169492 h 5.9276881 5.927688 l -0.04216,3.8389828 c -0.05454,4.966704 -0.186475,8.648409 -0.322399,8.996604 -0.05932,0.151945 -0.299475,0.415081 -0.533691,0.584745 l -0.425846,0.308482 -4.484742,-0.004 c -3.5273331,-0.0031 -4.5498717,-0.03314 -4.7898266,-0.140556 z m 3.5881466,-3.92326 c 0.559474,-0.50339 1.048991,-0.915254 1.087815,-0.915254 0.03882,0 0.512329,0.411864 1.052233,0.915254 0.539903,0.50339 1.019475,0.915254 1.065715,0.915254 0.149429,0 1.141153,-0.908252 1.317273,-1.2064 L 15.593908,16.097576 14.6817,15.069599 c -0.501715,-0.565387 -0.912208,-1.056075 -0.912208,-1.090417 0,-0.03434 0.400423,-0.49541 0.88983,-1.024597 0.489407,-0.529187 0.902924,-1.020257 0.918927,-1.091267 0.03512,-0.155811 -1.225912,-1.389239 -1.418599,-1.387552 -0.07476,6.55e-4 -0.570667,0.388241 -1.102023,0.861303 -0.531356,0.473063 -1.005133,0.86151 -1.052838,0.863217 -0.04771,0.0017 -0.526557,-0.385879 -1.064117,-0.861303 -0.53756,-0.475424 -1.0345659,-0.864407 -1.1044585,-0.864407 -0.1922227,0 -1.4697537,1.232449 -1.4355444,1.384886 0.016412,0.07313 0.4302631,0.565936 0.9196699,1.095123 0.4894068,0.529187 0.88983,0.993227 0.88983,1.0312 0,0.03797 -0.3889826,0.508865 -0.8644063,1.046424 -0.4754237,0.53756 -0.8644068,1.033261 -0.8644068,1.101559 0,0.165951 1.1379578,1.456966 1.2854612,1.458358 0.063783,6.1e-4 0.5737209,-0.41077 1.1331939,-0.91416 z"
     id="path3731"
     inkscape:connector-curvature="0" />
  <path
     style="fill:#d40000;stroke-width:0.10169491"
     d="M 5.0237288,5.0338983 V 4.0677966 l 1.9067797,-0.00506 1.9067796,-0.00506 0.4067797,-0.50197 0.4067797,-0.50197 2.3389835,-0.00139 2.338983,-0.00139 0.437845,0.5084246 0.437845,0.5084254 h 1.875714 1.875714 V 5.0338983 6 H 11.989831 5.0237288 Z"
     id="path3733"
     inkscape:connector-curvature="0" />
</svg>
